<svg width="72" height="69" viewBox="0 0 72 69" fill="none" xmlns="http://www.w3.org/2000/svg">
<g clip-path="url(#clip0_850_170)">
<path d="M71.04 51.15V63.32H2V51.15H19.65C21.13 51.15 22.47 50.56 23.45 49.59C24.44 48.61 25.05 47.26 25.05 45.75V40.9199C25.05 37.7399 26.34 34.88 28.41 32.81C30.49 30.73 33.36 29.45 36.52 29.45C42.85 29.45 47.98 34.5799 47.98 40.9199V45.75C47.98 46.45 48.11 47.12 48.37 47.74C49.15 49.74 51.1 51.15 53.39 51.15H71.04Z" stroke="white" stroke-width="1.5" stroke-miterlimit="10"/>
<path d="M21.9608 47.08C22.3708 47.97 22.8608 48.81 23.4408 49.59C22.4608 50.56 21.1308 51.15 19.6408 51.15H10.0708C8.13078 47.23 7.05078 42.82 7.05078 38.15C7.05078 32.72 8.52078 27.63 11.0908 23.26L21.9508 47.07L21.9608 47.08Z" stroke="white" stroke-width="1.5" stroke-miterlimit="10"/>
<path d="M65.9807 38.15C65.9807 42.82 64.8907 47.23 62.9507 51.15H53.3807C51.1007 51.15 49.1507 49.74 48.3607 47.74C50.2207 44.18 50.6507 39.84 49.0007 35.64C45.3707 26.35 41.2507 15.83 38.4707 8.76001C53.8207 9.77001 65.9707 22.54 65.9707 38.15H65.9807Z" stroke="white" stroke-width="1.5" stroke-miterlimit="10"/>
<path d="M51.8509 63.3201C47.3809 66.0401 42.1409 67.6101 36.5309 67.6101C30.9209 67.6101 25.6709 66.0401 21.2109 63.3201H51.8509Z" stroke="white" stroke-width="1.5" stroke-miterlimit="10"/>
<path d="M48.3695 47.7399C48.1095 47.1299 47.9795 46.4499 47.9795 45.7499V40.9199C47.9795 34.5799 42.8495 29.4499 36.5195 29.4499C33.3495 29.4499 30.4895 30.7399 28.4095 32.8099C26.3295 34.8799 25.0495 37.7499 25.0495 40.9199V45.7499C25.0495 47.2499 24.4395 48.6099 23.4495 49.5899C22.8695 48.8099 22.3695 47.9699 21.9695 47.0799L11.1095 23.2699L0.769531 0.60994C0.769531 0.60994 34.9695 0.34994 35.2095 0.60994C35.2795 0.66994 36.5695 3.88994 38.4695 8.75994C41.2595 15.8199 45.3695 26.3499 48.9995 35.6399C50.6395 39.8299 50.2195 44.1799 48.3595 47.7399H48.3695Z" stroke="white" stroke-width="1.5" stroke-miterlimit="10"/>
<path d="M38.8596 35.5701H34.1896L31.8496 39.6101L34.1896 43.6601H38.8596L41.1896 39.6101L38.8596 35.5701Z" stroke="#55BCFF" stroke-width="1.5" stroke-miterlimit="10"/>
</g>
<defs>
<clipPath id="clip0_850_170">
<rect width="71.54" height="68.11" fill="white"/>
</clipPath>
</defs>
</svg>
