<svg width="20" height="20" viewBox="0 0 20 20" fill="none" xmlns="http://www.w3.org/2000/svg">
<g clip-path="url(#clip0_387_370)">
<path d="M19.3498 19.2H3.95976C1.40976 19.2 -0.260236 16.54 0.839764 14.24L7.45976 0.5" stroke="#1D1D1D" stroke-linecap="round" stroke-linejoin="round"/>
<path d="M11.3501 6.59993C12.1565 6.59993 12.8101 5.94627 12.8101 5.13993C12.8101 4.3336 12.1565 3.67993 11.3501 3.67993C10.5438 3.67993 9.89014 4.3336 9.89014 5.13993C9.89014 5.94627 10.5438 6.59993 11.3501 6.59993Z" fill="#1D1D1D"/>
<path d="M15.3101 10.3299C16.1164 10.3299 16.7701 9.67625 16.7701 8.86991C16.7701 8.06358 16.1164 7.40991 15.3101 7.40991C14.5038 7.40991 13.8501 8.06358 13.8501 8.86991C13.8501 9.67625 14.5038 10.3299 15.3101 10.3299Z" fill="#1D1D1D"/>
<path d="M16.25 15.5699C17.0564 15.5699 17.71 14.9162 17.71 14.1099C17.71 13.3036 17.0564 12.6499 16.25 12.6499C15.4437 12.6499 14.79 13.3036 14.79 14.1099C14.79 14.9162 15.4437 15.5699 16.25 15.5699Z" fill="#1D1D1D"/>
</g>
<defs>
<clipPath id="clip0_387_370">
<rect width="19.85" height="19.7" fill="white"/>
</clipPath>
</defs>
</svg>
