<svg width="60" height="59" viewBox="0 0 60 59" fill="none" xmlns="http://www.w3.org/2000/svg">
<g clip-path="url(#clip0_415_105)">
<path d="M18.9082 54.9044V52.2587C18.9082 53.2111 19.1302 54.1107 19.5318 54.9044H18.9082Z" stroke="#1A1A1A" stroke-width="1.5" stroke-linecap="round" stroke-linejoin="round"/>
<path d="M18.918 35.4741H41.7258" stroke="#1A1A1A" stroke-width="1.5" stroke-linecap="round" stroke-linejoin="round"/>
<path d="M30.8082 52.2586C30.8082 53.2111 30.5863 54.1106 30.1847 54.9044C29.2229 56.8728 27.2042 58.2168 24.8685 58.2168C22.5327 58.2168 20.5035 56.8728 19.5523 54.9044C19.1507 54.1106 18.9287 53.2111 18.9287 52.2586C18.9287 48.9673 21.5921 46.3004 24.879 46.3004C28.166 46.3004 30.8294 48.9673 30.8294 52.2586H30.8082Z" stroke="#1A1A1A" stroke-width="1.5" stroke-linecap="round" stroke-linejoin="round"/>
<path d="M56.6917 52.2587C56.6917 55.55 54.0283 58.2169 50.7413 58.2169C47.4544 58.2169 44.791 55.55 44.791 52.2587C44.791 52.2057 44.791 52.1634 44.791 52.1105L50.5722 46.311C50.5722 46.311 50.6779 46.311 50.7308 46.311C54.0177 46.311 56.6811 48.9779 56.6811 52.2692L56.6917 52.2587Z" stroke="#1A1A1A" stroke-width="1.5" stroke-linecap="round" stroke-linejoin="round"/>
<path d="M59.2075 4.65649L52.3588 11.1756V44.5119L50.5726 46.3004L44.7914 52.0999L42.0012 54.8938H30.1745C30.5762 54.1001 30.7981 53.2005 30.7981 52.2481C30.7981 48.9568 28.1347 46.2899 24.8478 46.2899C21.5608 46.2899 18.8975 48.9568 18.8975 52.2481V35.4635L23.9389 29.8016H48.6597V9.56699L48.7336 9.49291L56.6392 1.979L59.1969 4.66708L59.2075 4.65649Z" stroke="#1A1A1A" stroke-width="1.5" stroke-linecap="round" stroke-linejoin="round"/>
<path d="M21.7725 3.36536H31.8764C34.1381 3.36536 35.9771 5.20679 35.9771 7.47154V24.235" stroke="#459DD7" stroke-width="1.5" stroke-linecap="round" stroke-linejoin="round"/>
<path d="M40.1938 20.9014L35.9768 25.124L31.7598 20.9014" stroke="#459DD7" stroke-width="1.5" stroke-linecap="round" stroke-linejoin="round"/>
<path d="M0.52832 18.8165H4.82989V0.529175" stroke="#1A1A1A" stroke-linecap="round" stroke-linejoin="round"/>
<path d="M6.53185 17.7371H4.84082" stroke="#1A1A1A" stroke-linecap="round" stroke-linejoin="round"/>
<path d="M4.84082 11.4825H19.2569L20.8528 13.0912V17.7371H19.4683" stroke="#1A1A1A" stroke-linecap="round" stroke-linejoin="round"/>
<path d="M14.8807 17.7371H11.1182" stroke="#1A1A1A" stroke-linecap="round" stroke-linejoin="round"/>
<path d="M6.3418 11.3027L9.32224 3.73584H16.023V11.4931" stroke="#1A1A1A" stroke-linecap="round" stroke-linejoin="round"/>
<path d="M19.5415 17.155C19.5415 17.3561 19.5204 17.5572 19.4676 17.7371C19.2139 18.753 18.2838 19.515 17.1741 19.515C16.0643 19.515 15.1448 18.753 14.8806 17.7371C14.8278 17.5572 14.8066 17.3561 14.8066 17.155C14.8066 15.8427 15.8635 14.7844 17.1741 14.7844C18.4846 14.7844 19.5415 15.8427 19.5415 17.155Z" stroke="#1A1A1A" stroke-linecap="round" stroke-linejoin="round"/>
<path d="M11.1929 17.155C11.1929 17.3561 11.1718 17.5572 11.1189 17.7371C10.8653 18.753 9.9352 19.515 8.82546 19.515C7.71571 19.515 6.79621 18.753 6.53199 17.7371C6.47915 17.5572 6.45801 17.3561 6.45801 17.155C6.45801 15.8427 7.5149 14.7844 8.82546 14.7844C10.136 14.7844 11.1929 15.8427 11.1929 17.155Z" stroke="#1A1A1A" stroke-linecap="round" stroke-linejoin="round"/>
</g>
<defs>
<clipPath id="clip0_415_105">
<rect width="60" height="59" fill="white"/>
</clipPath>
</defs>
</svg>
